<?xml version="1.0" standalone="no"?><!DOCTYPE svg PUBLIC "-//W3C//DTD SVG 1.1//EN" "http://www.w3.org/Graphics/SVG/1.1/DTD/svg11.dtd"><svg t="1717919406268" class="icon" viewBox="0 0 1024 1024" version="1.1" xmlns="http://www.w3.org/2000/svg" p-id="4459" xmlns:xlink="http://www.w3.org/1999/xlink" width="200" height="200"><path d="M384 96H267.637a32 32 0 0 0-26.625 14.25L101.374 319.704l-0.265 0.406c-8.661 13.42-6.1 31.214 6.066 41.641L218.182 456.9V896c0 17.673 14.327 32 32 32h524.165c17.429-0.287 31.47-14.504 31.47-32V456.9l111.008-95.149c12.288-10.532 14.778-28.58 5.8-42.047L782.989 110.25A32 32 0 0 0 756.363 96H640c-17.496 0-31.713 14.042-31.996 31.47L608 128c0 53.02-42.98 96-96 96-52.489 0-95.14-42.125-95.987-94.412L416 128c0-17.673-14.327-32-32-32z m355.237 64l114.408 171.612-100.653 86.274-0.377 0.329a32 32 0 0 0-10.797 23.967L741.817 864H282.182V442.182l-0.003-0.5a32 32 0 0 0-11.171-23.796l-100.654-86.274L284.762 160h70.443l0.306 1.494C370.908 233.78 435.122 288 512 288l2.646-0.021c75.702-1.228 138.623-55.03 153.843-126.485l0.305-1.494h70.443z" p-id="4460" fill="#a6adc8"></path></svg>